<svg width="36" height="34" viewBox="0 0 36 34" fill="none" xmlns="http://www.w3.org/2000/svg">
<path d="M0 8.5C0 7.37283 0.474106 6.29183 1.31802 5.4948C2.16193 4.69777 3.30653 4.25 4.5 4.25H31.5C32.6935 4.25 33.8381 4.69777 34.682 5.4948C35.5259 6.29183 36 7.37283 36 8.5V25.5C36 26.6272 35.5259 27.7082 34.682 28.5052C33.8381 29.3022 32.6935 29.75 31.5 29.75H4.5C3.30653 29.75 2.16193 29.3022 1.31802 28.5052C0.474106 27.7082 0 26.6272 0 25.5V8.5ZM4.5 6.375C3.90326 6.375 3.33097 6.59888 2.90901 6.9974C2.48705 7.39591 2.25 7.93641 2.25 8.5V8.96113L18 17.8861L33.75 8.96113V8.5C33.75 7.93641 33.5129 7.39591 33.091 6.9974C32.669 6.59888 32.0967 6.375 31.5 6.375H4.5ZM33.75 11.4389L23.157 17.442L33.75 23.5981V11.4389ZM33.6735 26.0504L20.9835 18.6745L18 20.3639L15.0165 18.6745L2.3265 26.0483C2.45436 26.5004 2.73671 26.9001 3.12973 27.1852C3.52274 27.4703 4.00443 27.6249 4.5 27.625H31.5C31.9953 27.6251 32.4767 27.4708 32.8697 27.1861C33.2627 26.9014 33.5452 26.5022 33.6735 26.0504V26.0504ZM2.25 23.5981L12.843 17.442L2.25 11.4389V23.5981Z" fill="#212529"/>
</svg>
