<svg width="546" height="138" viewBox="0 0 546 138" fill="none" xmlns="http://www.w3.org/2000/svg">
<path d="M47.9779 69.7814C48.2202 79.866 48.5594 89.9505 48.9471 100.079C50.2071 114.597 53.3572 124.899 58.3004 130.941H27.4298L27.2359 28.0086H0V7.23088H19.0458C22.4381 6.53539 24.6674 5.66603 25.8305 4.57933C26.509 3.88384 27.139 2.53633 27.6236 0.536804L46.3786 0.710674C49.3833 4.49239 52.7757 6.70927 56.6042 7.40476L81.6593 7.23088V28.0086L53.648 27.8347C48.9471 30.6167 46.5725 35.6155 46.5725 42.7443C46.5725 44.6134 46.8148 46.6999 47.2509 48.9167L47.9779 69.7814ZM63.0012 43.1355C63.0012 40.4405 64.8428 39.0929 68.526 39.0929C72.3061 39.0929 74.1476 40.7882 74.1476 44.1352C74.1476 46.8303 72.4514 48.1778 69.0591 48.1778C65.0367 48.1778 63.0012 46.4825 63.0012 43.1355ZM63.6797 62.4353C63.6797 59.7403 65.4728 58.3928 69.1075 58.3928C72.8876 58.3928 74.7292 60.088 74.7292 63.522C74.7292 66.217 73.033 67.5645 69.6406 67.5645C65.6667 67.5645 63.6797 65.8693 63.6797 62.4353Z" fill="url(#paint0_linear_41_372706)"/>
<path d="M102.353 48.6125H91.5457V34.0507H92.9026C98.185 34.0507 101.432 31.573 102.644 26.6611L117.764 26.835C120.139 29.7908 122.852 31.573 125.906 32.1381L156.873 31.9642L156.776 130.941H138.409V82.0828H118.878C119.121 90.081 119.412 98.166 119.751 106.251C120.769 117.857 123.289 126.072 127.311 130.941H102.062V82.0828H91.5457C94.4534 80.2572 97.0219 77.736 99.1543 74.5194C101.287 71.3028 102.353 68.2166 102.353 65.2607V48.6125ZM138.797 48.6125L123.482 48.4386C119.702 50.7424 117.861 54.7415 117.861 60.4358C117.861 61.9137 118.006 63.5655 118.345 65.3042H138.797V48.6125Z" fill="url(#paint1_linear_41_372706)"/>
<path d="M220.165 48.6125L204.851 48.4386C201.071 50.7424 199.229 54.7415 199.229 60.4358C199.229 61.9137 199.375 63.5655 199.714 65.3042V89.4724C200.053 100.383 200.392 107.207 200.877 109.989C202.04 118.987 204.657 125.942 208.728 130.897H183.479L183.77 48.569H172.963V34.0072C180.377 33.4421 184.061 30.9644 184.061 26.6176L199.181 26.7915C201.556 29.7473 204.269 31.5295 207.323 32.0946L238.29 31.9207L238.193 130.897H220.117L220.165 48.6125Z" fill="url(#paint2_linear_41_372706)"/>
<path d="M254.283 130.941V114.293L275.218 114.206L282.488 98.5138L282.391 48.6125H254.283V31.9642H275.8C278.465 31.4426 280.307 30.7471 281.228 29.9212C281.761 29.3561 282.197 28.2694 282.682 26.6611L297.705 26.835C300.08 29.7908 302.794 31.573 305.847 32.1381L319.61 31.9642V48.6125L303.472 48.4386C299.692 50.7424 297.85 54.7415 297.85 60.4358C297.85 61.9137 297.996 63.5655 298.335 65.3042V100.47L283.99 130.897H254.283V130.941ZM260.098 60.0011C260.098 57.8277 261.552 56.741 264.411 56.741C267.464 56.741 269.015 58.0885 269.015 60.7835C269.015 62.9569 267.658 64.0436 264.896 64.0436C261.697 64.0436 260.098 62.6961 260.098 60.0011Z" fill="url(#paint3_linear_41_372706)"/>
<path d="M364.05 81.0396C364.05 91.2546 364.292 102.339 364.826 114.249L382.805 114.336V130.984H335.651V114.684H346.264L346.458 48.6559H335.651V34.0941C341.854 34.0941 345.537 31.6165 346.749 26.7046L361.869 26.8784C364.244 29.8343 366.958 31.6165 370.011 32.1815L382.805 32.0077V48.6559L367.588 48.4821C365.262 50.0034 364.05 60.8704 364.05 81.0396ZM371.223 57.8712C371.223 55.6978 372.676 54.6111 375.633 54.6111C378.686 54.6111 380.237 56.002 380.237 58.7405C380.237 60.8705 378.831 61.9137 376.02 61.9137C372.822 61.9137 371.223 60.5662 371.223 57.8712Z" fill="url(#paint4_linear_41_372706)"/>
<path d="M398.604 31.6165C401.997 31.6165 404.274 31.3991 405.486 31.0079C407.667 30.3994 409.072 28.9214 409.702 26.6176L424.822 26.7915C427.197 29.7473 429.911 31.5295 432.964 32.0946L463.932 31.9207V48.569L446.728 74.5629H429.426L444.837 48.569L425.598 48.7429L425.404 78.6054L463.835 78.7793L463.641 137.287L446.631 137.374V95.5145L425.986 95.4275L425.889 130.767L408.781 130.941L409.169 95.4275H398.653C400.834 93.9931 402.869 91.385 404.759 87.6033C406.358 84.6475 407.909 81.6047 409.46 78.5185V48.569H398.653V31.6165H398.604Z" fill="url(#paint5_linear_41_372706)"/>
<path d="M545.3 31.9642L545.203 130.941H479.973V31.9642H545.3ZM526.642 114.249V48.6125H498.34V114.249H526.642ZM508.372 60.2619C508.372 58.0885 509.826 57.0018 512.685 57.0018C515.738 57.0018 517.289 58.3928 517.289 61.1313C517.289 63.2612 515.932 64.3044 513.169 64.3044C509.971 64.3044 508.372 62.9569 508.372 60.2619Z" fill="url(#paint6_linear_41_372706)"/>
<defs>
<linearGradient id="paint0_linear_41_372706" x1="40.8297" y1="0.536804" x2="40.8297" y2="130.941" gradientUnits="userSpaceOnUse">
<stop offset="0.501454" stop-color="#F90A0A"/>
<stop offset="1" stop-opacity="0.87"/>
</linearGradient>
<linearGradient id="paint1_linear_41_372706" x1="124.209" y1="26.6611" x2="124.209" y2="130.941" gradientUnits="userSpaceOnUse">
<stop offset="0.501454" stop-color="#F90A0A"/>
<stop offset="1" stop-opacity="0.87"/>
</linearGradient>
<linearGradient id="paint2_linear_41_372706" x1="205.626" y1="26.6176" x2="205.626" y2="130.897" gradientUnits="userSpaceOnUse">
<stop offset="0.501454" stop-color="#F90A0A"/>
<stop offset="1" stop-opacity="0.87"/>
</linearGradient>
<linearGradient id="paint3_linear_41_372706" x1="286.946" y1="26.6611" x2="286.946" y2="130.941" gradientUnits="userSpaceOnUse">
<stop offset="0.501454" stop-color="#F90A0A"/>
<stop offset="1" stop-opacity="0.87"/>
</linearGradient>
<linearGradient id="paint4_linear_41_372706" x1="359.228" y1="26.7046" x2="359.228" y2="130.984" gradientUnits="userSpaceOnUse">
<stop offset="0.501454" stop-color="#F90A0A"/>
<stop offset="1" stop-opacity="0.87"/>
</linearGradient>
<linearGradient id="paint5_linear_41_372706" x1="431.268" y1="26.6176" x2="431.268" y2="137.374" gradientUnits="userSpaceOnUse">
<stop offset="0.501454" stop-color="#F90A0A"/>
<stop offset="1" stop-opacity="0.87"/>
</linearGradient>
<linearGradient id="paint6_linear_41_372706" x1="512.636" y1="31.9642" x2="512.636" y2="130.941" gradientUnits="userSpaceOnUse">
<stop offset="0.501454" stop-color="#F90A0A"/>
<stop offset="1" stop-opacity="0.87"/>
</linearGradient>
</defs>
</svg>
