<?xml version="1.0" encoding="utf-8"?>
<!-- Generator: Adobe Illustrator 25.2.3, SVG Export Plug-In . SVG Version: 6.00 Build 0)  -->
<svg version="1.1" id="Capa_1" xmlns="http://www.w3.org/2000/svg" xmlns:xlink="http://www.w3.org/1999/xlink" x="0px" y="0px"
	 viewBox="0 0 1366 768" style="enable-background:new 0 0 1366 768;" xml:space="preserve">
<g>
	<path d="M216.7,394.1c0.5,23.2,1.2,46.4,2,69.7c2.6,33.4,9.1,57.1,19.3,71h-63.7L173.9,298h-56.2v-47.8h39.3c7-1.6,11.6-3.6,14-6.1
		c1.4-1.6,2.7-4.7,3.7-9.3l38.7,0.4c6.2,8.7,13.2,13.8,21.1,15.4l51.7-0.4V298l-57.8-0.4c-9.7,6.4-14.6,17.9-14.6,34.3
		c0,4.3,0.5,9.1,1.4,14.2L216.7,394.1z M247.7,332.8c0-6.2,3.8-9.3,11.4-9.3c7.8,0,11.6,3.9,11.6,11.6c0,6.2-3.5,9.3-10.5,9.3
		C251.9,344.4,247.7,340.5,247.7,332.8z M249.1,377.2c0-6.2,3.7-9.3,11.2-9.3c7.8,0,11.6,3.9,11.6,11.8c0,6.2-3.5,9.3-10.5,9.3
		C253.2,389,249.1,385.1,249.1,377.2z"/>
	<path d="M328.9,345.4h-22.3v-33.5h2.8c10.9,0,17.6-5.7,20.1-17l31.2,0.4c4.9,6.8,10.5,10.9,16.8,12.2l63.9-0.4l-0.2,227.7h-37.9
		V422.4H363c0.5,18.4,1.1,37,1.8,55.6c2.1,26.7,7.3,45.6,15.6,56.8h-52.1V422.4h-21.7c6-4.2,11.3-10,15.7-17.4
		c4.4-7.4,6.6-14.5,6.6-21.3V345.4z M404.1,345.4l-31.6-0.4c-7.8,5.3-11.6,14.5-11.6,27.6c0,3.4,0.3,7.2,1,11.2h42.2V345.4z"/>
	<path d="M572,345.4l-31.6-0.4c-7.8,5.3-11.6,14.5-11.6,27.6c0,3.4,0.3,7.2,1,11.2v55.6c0.7,25.1,1.4,40.8,2.4,47.2
		c2.4,20.7,7.8,36.7,16.2,48.1h-52.1l0.6-189.4h-22.3v-33.5c15.3-1.3,22.9-7,22.9-17l31.2,0.4c4.9,6.8,10.5,10.9,16.8,12.2l63.9-0.4
		l-0.2,227.7h-37.3L572,345.4z"/>
	<path d="M642.4,534.8v-38.3l43.2-0.2l15-36.1l-0.2-114.8h-58v-38.3h44.4c5.5-1.2,9.3-2.8,11.2-4.7c1.1-1.3,2-3.8,3-7.5l31,0.4
		c4.9,6.8,10.5,10.9,16.8,12.2l28.4-0.4v38.3l-33.3-0.4c-7.8,5.3-11.6,14.5-11.6,27.6c0,3.4,0.3,7.2,1,11.2v80.9l-29.6,70H642.4z
		 M654.4,371.6c0-5,3-7.5,8.9-7.5c6.3,0,9.5,3.1,9.5,9.3c0,5-2.8,7.5-8.5,7.5C657.7,380.9,654.4,377.8,654.4,371.6z"/>
	<path d="M868.9,420c0,23.5,0.5,49,1.6,76.4l37.1,0.2v38.3h-97.3v-37.5h21.9l0.4-151.9h-22.3v-33.5c12.8,0,20.4-5.7,22.9-17
		l31.2,0.4c4.9,6.8,10.5,10.9,16.8,12.2l26.4-0.4v38.3l-31.4-0.4C871.4,348.6,868.9,373.6,868.9,420z M883.7,366.7
		c0-5,3-7.5,9.1-7.5c6.3,0,9.5,3.2,9.5,9.5c0,4.9-2.9,7.3-8.7,7.3C887,376,883.7,372.9,883.7,366.7z"/>
	<path d="M940.2,306.3c7,0,11.7-0.5,14.2-1.4c4.5-1.4,7.4-4.8,8.7-10.1l31.2,0.4c4.9,6.8,10.5,10.9,16.8,12.2l63.9-0.4v38.3
		l-35.5,59.8h-35.7l31.8-59.8l-39.7,0.4l-0.4,68.7l79.3,0.4l-0.4,134.6l-35.1,0.2v-96.3l-42.6-0.2l-0.2,81.3l-35.3,0.4l0.8-81.7
		h-21.7c4.5-3.3,8.7-9.3,12.6-18c3.3-6.8,6.5-13.8,9.7-20.9v-68.9h-22.3V306.3z"/>
	<path d="M1242.9,307.1l-0.2,227.7h-134.6V307.1H1242.9z M1204.4,496.4v-151H1146v151H1204.4z M1166.7,372.2c0-5,3-7.5,8.9-7.5
		c6.3,0,9.5,3.2,9.5,9.5c0,4.9-2.8,7.3-8.5,7.3C1170,381.5,1166.7,378.4,1166.7,372.2z"/>
</g>
</svg>
